<?xml version="1.0" encoding="UTF-8" standalone="no"?>
<svg width="51px" height="83px" viewBox="0 0 51 83" version="1.1" xmlns="http://www.w3.org/2000/svg" xmlns:xlink="http://www.w3.org/1999/xlink" xmlns:sketch="http://www.bohemiancoding.com/sketch/ns">
    <title>Untitled 1</title>
    <description>Created with Sketch (http://www.bohemiancoding.com/sketch)</description>
    <defs></defs>
    <g id="Page-1" stroke="none" stroke-width="1" fill="none" fill-rule="evenodd" sketch:type="MSPage">
        <rect d="M10.9935776,0 C6.57884659,0 3,3.57971541 3,7.99606002 L3,75.00394 C3,79.420042 6.58204887,83 10.9935776,83 L39.0064224,83 C43.4211534,83 47,79.4202846 47,75.00394 L47,7.99606002 C47,3.57995801 43.4179511,0 39.0064224,0 L10.9935776,0 Z M10.9935776,0" id="Rectangle-1" stroke="#000000" fill="#000000" sketch:type="MSShapeGroup" x="3" y="0" width="44" height="83" rx="8"></rect>
        <rect d="M7,18 L7,66 L43,66 L43,18 L7,18 Z M7,18" id="Rectangle-2" stroke="#979797" fill="#FFFFFF" sketch:type="MSShapeGroup" x="7" y="18" width="36" height="48"></rect>
        <circle d="M25,77 C27.2091391,77 29,75.2091391 29,73 C29,70.7908609 27.2091391,69 25,69 C22.7908609,69 21,70.7908609 21,73 C21,75.2091391 22.7908609,77 25,77 Z M25,77" id="Oval-1" fill="#FFFFFF" sketch:type="MSShapeGroup" cx="25" cy="73" r="4"></circle>
        <rect d="M20.9955775,8 C20.4457352,8 20,8.44386482 20,9 L20,9 C20,9.55228475 20.444837,10 20.9955775,10 L30.0044225,10 C30.5542648,10 31,9.55613518 31,9 L31,9 C31,8.44771525 30.555163,8 30.0044225,8 L20.9955775,8 Z M20.9955775,8" id="Rectangle-3" fill="#FFFFFF" sketch:type="MSShapeGroup" x="20" y="8" width="11" height="2" rx="3"></rect>
    </g>
</svg>